<?xml version="1.0" encoding="UTF-8" standalone="no"?>



<svg

  xmlns:dc="http://purl.org/dc/elements/1.1/"

  xmlns:cc="http://creativecommons.org/ns#"

  xmlns:rdf="http://www.w3.org/1999/02/22-rdf-syntax-ns#"

  xmlns:svg="http://www.w3.org/2000/svg"

  xmlns="http://www.w3.org/2000/svg"

  xmlns:sodipodi="http://sodipodi.sourceforge.net/DTD/sodipodi-0.dtd"

  xmlns:inkscape="http://www.inkscape.org/namespaces/inkscape"

  width="1250"
   
  height="900"

  id="svg2985"

  version="1.1"

  inkscape:version="0.48.5 r10040"

  sodipodi:docname="failthistle.svg">

  <defs
     id="defs2987">

    <style id="style6" type="text/css">
      <!--Classes to change colour easily-->
      .stroked {stroke:#000000;stroke-width:0px;stroke-linecap:butt;stroke-linejoin:miter;stroke-opacity:1;}
      .base {fill: #FFFFFF;}
      .prickle {fill: #FFFFFF;}
      .flower {fill: #FFFFFF;}
    </style>
  </defs>
  <sodipodi:namedview

    id="base"

    pagecolor="#ffffff"

    bordercolor="#ffffff"
    borderopacity="0.0"
    inkscape:pageopacity="0.0"

    inkscape:pageshadow="0"

    inkscape:zoom="0.35"
    inkscape:cx="686.81244"

    inkscape:cy="364.74448"

    inkscape:document-units="px"

    inkscape:current-layer="layer1"

    showgrid="true"

    inkscape:snap-nodes="false"

    inkscape:window-width="1366"

    inkscape:window-height="705"

    inkscape:window-x="-8"

    inkscape:window-y="-8"

    inkscape:window-maximized="1"

    showguides="true"

    inkscape:guide-bbox="true">

  <inkscape:grid

    type="xygrid"

    id="grid3844" />

  </sodipodi:namedview>

  <metadata
 id="metadata2990">

    <rdf:RDF>

      <cc:Work
 rdf:about="">

        <dc:format>image/svg+xml</dc:format>

        <dc:type
 rdf:resource="http://purl.org/dc/dcmitype/StillImage" />

        <dc:title></dc:title>

      </cc:Work>

    </rdf:RDF>

  </metadata>

  <g

    inkscape:label="Layer 1"

    inkscape:groupmode="layer"

    id="layer1"

    transform="translate(-2.8571429,20)">

    <path
 class="stroked base" d="m 480,569.79075 c 0,0 51.42857,-31.42857 117.14285,-34.28571 C 662.85714,532.6479 760,544.07647 760,544.07647 c 0,0 -62.85715,34.28571 -85.71429,68.57143 -22.85714,34.28571 -54.28571,80 -54.28571,80 0,0 -40,-20 -80,-57.14286 -40,-37.14286 -60,-65.71429 -60,-65.71429 z" id="path3015" inkscape:connector-curvature="0"/>

    <path
 class="stroked base" d="m 465.71428,604.07647 c 0,0 51.42857,42.85714 68.57143,54.28571 17.14286,11.42857 80,45.71429 80,45.71429 0,0 -62.85714,65.71428 -82.85714,88.57143 -20,22.85714 -65.71429,65.7143 -65.71429,65.7143 l -120,-114.28573 c 0,0 37.14286,-14.28572 62.85715,-45.71429 25.71428,-31.42857 57.14285,-94.28571 57.14285,-94.28571 z" id="path3019" inkscape:connector-curvature="0"/>

    <path
 class="stroked base" d="m 300,695.50504 34.28571,34.28571 c 0,0 37.14286,-22.85714 62.85714,-54.28571 25.71429,-31.42857 65.71429,-94.28571 65.71429,-94.28571 0,0 -71.42857,28.57142 -102.85714,60 -31.42857,31.42857 -60,54.28571 -60,54.28571 z"
 id="path3021" inkscape:connector-curvature="0"/>

    <path class="stroked base" d="m 194.28571,866.9336 c 0,0 25.71429,-45.71427 42.85714,-68.57142 17.14286,-22.85714 51.42858,-74.28571 51.42858,-74.28571 L 320,761.21933 c 0,0 -17.14286,17.14285 -57.14286,57.14285 -40,40.00002 -68.57143,48.57142 -68.57143,48.57142 z"
 id="path3023"
 inkscape:connector-curvature="0"/>

    <path
 class="stroked base" d="m 220,875.505 c 0,0 42.85714,-37.14282 62.85714,-51.42853 20,-14.28572 45.71429,-51.42857 45.71429,-51.42857 0,0 42.85714,48.57143 57.14285,57.14285 14.28572,8.57143 40,25.71425 40,25.71425 z"
 id="path3025"
 inkscape:connector-curvature="0"/>
    <path class="stroked base" d="m 494.28571,858.3622 c 0,0 42.85714,-8.5714 77.14286,-48.57145 34.28571,-40 54.28571,-71.42857 54.28571,-71.42857 0,0 40,42.85715 60,57.14286 20,14.28571 45.71429,40 45.71429,40 z"
 id="path3027"
 inkscape:connector-curvature="0"/>

    <path
 class="stroked base" d="m 645.71428,706.93361 c 0,0 42.85715,51.42857 65.71429,71.42857 22.85714,20 77.14286,60 77.14286,60 L 880,701.21933 c 0,0 -37.14286,-22.85715 -74.28572,-60 -37.14285,-37.14286 -68.57143,-71.42858 -68.57143,-71.42858 z" id="path3029"
 inkscape:connector-curvature="0"/>

    <path class="stroked base" d="m 762.85714,558.36218 c 0,0 60,8.57143 97.14286,28.57143 37.14285,20 71.42854,48.57143 71.42854,48.57143 l -39.99997,37.14286 c 0,0 -20,-8.57143 -62.85714,-40 -42.85715,-31.42857 -65.71429,-74.28572 -65.71429,-74.28572 z" id="path3031" inkscape:connector-curvature="0"/>

    <path
 class="stroked base" d="m 911.42854,695.50504 42.8572,-51.42857 c 0,0 48.57136,57.14286 74.28566,97.14286 25.7143,40 45.7143,94.28571 45.7143,94.28571 0,0 -51.4286,-34.28571 -99.99996,-71.42857 -48.5715,-37.14286 -62.8572,-68.57143 -62.8572,-68.57143 z" id="path3033" inkscape:connector-curvature="0"
/>

    <path
 class="stroked base" d="m 891.42857,715.50504 c 0,0 31.42857,37.14286 65.71427,62.85714 34.2857,25.71429 77.14286,62.85715 77.14286,62.85715 l -231.42856,-2.85715 c 0,0 37.14286,-37.14285 54.28571,-60 17.14286,-22.85714 34.28572,-62.85714 34.28572,-62.85714 z" id="path3035" inkscape:connector-curvature="0"/>

    <path
 class="stroked prickle" d="m 320,655.50504 28.57143,-25.71429 c 0,0 -25.71429,-25.71428 -88.57143,-100 -62.85715,-74.28571 -85.71429,-105.71428 -85.71429,-105.71428 z" id="path3037"
 inkscape:connector-curvature="0"
/>

    <path class="stroked prickle" d="m 225.71428,766.93361 -20,40 c 0,0 -34.28571,-28.57143 -100,-105.71428 -65.714277,-77.14286 -74.285707,-120 -74.285707,-120 0,0 60,60 108.571427,114.28571 48.57143,54.28571 85.71428,71.42857 85.71428,71.42857 z" id="path3039" inkscape:connector-curvature="0"/>
    <path
 class="stroked prickle" d="M 114.28571,869.7908 80.000003,866.9336 11.428573,786.93361 z"
       id="path3041"
       inkscape:connector-curvature="0"/>

    <path
 class="stroked prickle" d="m 894.28571,578.36218 40.00003,31.42857 c 0,0 28.5714,-20 62.8571,-57.14285 34.28566,-37.14286 77.14286,-120 77.14286,-120 0,0 -51.4286,71.42857 -102.85716,102.85714 -51.4285,31.42857 -77.14283,42.85714 -77.14283,42.85714 z" id="path3043" inkscape:connector-curvature="0"/>
    <path
 class="stroked prickle" d="m 1011.4285,686.93361 40,54.28572 c 0,0 77.1429,-60 102.8572,-88.57143 25.7143,-28.57143 68.5714,-114.28572 68.5714,-114.28572 0,0 -65.7143,80 -108.5714,111.42857 -42.8572,31.42858 -102.8572,37.14286 -102.8572,37.14286 z" id="path3045" inkscape:connector-curvature="0"/>
    <path
 class="stroked prickle" d="m 1120,832.6479 37.1428,-2.85715 80,-85.71428 z"
 id="path3047"
 inkscape:connector-curvature="0"/>

    <path
 class="stroked flower" d="m 260,315.50504 c 0,0 2.85714,-14.28571 17.14285,-31.42857 14.28572,-17.14286 31.42858,-28.57143 31.42858,-28.57143 0,0 11.42857,-8.57143 25.71428,17.14286 14.28572,25.71428 68.57143,102.85714 74.28572,137.14285 5.71428,34.28572 28.57142,77.14286 20,117.14286 -8.57143,40 -11.42858,54.28572 -11.42858,54.28572 l -22.85714,5.71428 c 0,0 11.42857,-22.85714 0,-71.42857 C 382.85714,466.93361 348.57143,386.93361 325.71428,364.07647 302.85714,341.21933 260,315.50504 260,315.50504 z" id="path3049" inkscape:connector-curvature="0"
/>

    <path
 class="stroked flower" d="m 434.28571,561.21933 37.14286,-14.28572 c 0,0 25.71428,-77.14286 20,-108.57143 -5.71429,-31.42857 -60,-177.14285 -94.28572,-231.42857 -34.28571,-54.28571 -40,-42.85714 -40,-42.85714 L 280,206.93361 c 0,0 34.28571,17.14286 54.28571,48.57143 20,31.42857 71.42857,102.85714 77.14286,131.42857 5.71428,28.57143 25.71428,88.57143 25.71428,125.71429 0,37.14285 -2.85714,48.57143 -2.85714,48.57143 z" id="path3051" inkscape:connector-curvature="0"
/>

    <path
 class="stroked flower" d="m 485.71428,544.07647 60,-14.28572 c 0,0 17.14286,-62.85714 2.85715,-168.57142 C 534.28571,255.50504 482.85714,69.79075 482.85714,69.79075 l -108.57143,57.14286 c 0,0 65.71429,105.71429 77.14286,145.71429 11.42857,40 48.57143,88.57143 48.57143,142.85714 0,54.28571 5.71428,60 -2.85715,82.85714 -8.57142,22.85715 -11.42857,45.71429 -11.42857,45.71429 z" id="path3053"
 inkscape:connector-curvature="0"
/>
    <path
 class="stroked flower" d="m 485.71428,46.93361 c 0,0 20,-34.28571 85.71429,-48.57143 65.71428,-14.28571 157.14286,-14.28571 154.28571,0 C 722.85714,12.6479 694.28571,112.6479 682.85714,149.79075 671.42857,186.93361 620,352.6479 620,392.6479 c 0,40 22.85714,114.28571 22.85714,114.28571 l -77.14286,17.14286 c 0,0 2.85715,-22.85714 0,-91.42857 -2.85714,-68.57143 0,-131.42857 -17.14285,-191.42857 -17.14286,-60 -62.85715,-194.28572 -62.85715,-194.28572 z" id="path3055" inkscape:connector-curvature="0"/>
    <path
 class="stroked flower"  d="m 737.14285,24.07647 c 0,0 54.28572,2.85714 82.85715,17.14286 28.57143,14.28571 48.57143,31.42857 48.57143,31.42857 0,0 -62.85715,62.85714 -82.85715,108.57143 -20,45.71428 -65.71428,157.14285 -74.28571,191.42857 -8.57143,34.28571 -14.28572,108.57143 -14.28572,122.85714 0,14.28571 -5.71428,17.14286 -5.71428,17.14286 l -28.57143,0 c 0,0 -25.71429,-48.57143 -22.85714,-91.42857 2.85714,-42.85715 60,-254.28572 68.57143,-280 8.57142,-25.71429 28.57142,-117.14286 28.57142,-117.14286 z" id="path3057" inkscape:connector-curvature="0"

/>
    <path
 class="stroked flower" d="m 877.14285,92.6479 c 0,0 34.28569,11.42857 51.42859,20 17.1428,8.57143 22.8571,17.14285 22.8571,17.14285 0,0 -125.71426,151.42858 -148.5714,197.14286 C 780,372.6479 760,435.50504 760,461.21933 c 0,25.71428 8.57143,57.14285 8.57143,57.14285 l -54.28572,0 c 0,0 0,-71.42857 11.42857,-120 11.42857,-48.57143 51.42857,-157.14285 71.42857,-180 20,-22.85714 80,-125.71428 80,-125.71428 z" id="path3059" inkscape:connector-curvature="0"
/>
    <path
 class="stroked flower" d="m 962.85714,158.36218 c 0,0 28.5714,14.28572 39.99996,25.71429 11.4286,11.42857 17.1429,28.57143 17.1429,28.57143 0,0 -54.28576,20 -88.57146,57.14285 C 897.14285,306.93361 825.71428,375.50504 820,424.07647 c -5.71429,48.57143 2.85714,91.42857 5.71428,102.85714 C 828.57143,538.36218 780,524.07647 780,524.07647 c 0,0 -11.42857,-37.14286 2.85714,-91.42857 14.28571,-54.28572 28.57143,-100 60,-131.42857 31.42857,-31.42858 51.42857,-71.42858 80,-100 28.5714,-28.57143 40,-42.85715 40,-42.85715 z"
 id="path3061" inkscape:connector-curvature="0"
/>
    <path
 class="stroked flower" d="m 842.85714,546.93361 28.57143,14.28572 c 0,0 -11.42857,-11.42858 -8.57143,-65.71429 2.85714,-54.28571 17.14286,-108.57143 42.8571,-131.42857 25.7143,-22.85714 57.1429,-62.85714 74.2858,-68.57143 17.1428,-5.71429 74.28566,-28.57143 74.28566,-28.57143 0,0 -31.4286,-22.85714 -57.14286,-20 -25.7143,2.85714 -105.71427,97.14286 -114.2857,108.57143 -8.57143,11.42857 -45.71429,77.14286 -48.57143,108.57143 -2.85714,31.42857 8.57143,82.85714 8.57143,82.85714 z"
 id="path3063"
 inkscape:connector-curvature="0"/>
  
  </g>

</svg>
